<svg width="29" height="29" viewBox="0 0 29 29" fill="none" xmlns="http://www.w3.org/2000/svg">
<path d="M15.9512 17.865C16.2732 18.1224 16.6304 18.3353 17.0146 18.4949L14.9961 22.5525L11.875 28.0818C11.2989 27.9552 10.7364 27.7921 10.1895 27.5945L13.5264 21.6843L15.9512 17.865ZM19.5352 23.3318V27.5417C18.9853 27.7477 18.4189 27.9177 17.8389 28.0515V23.3318L18.0713 18.7839C18.2724 18.8124 18.4777 18.8289 18.6865 18.8289C18.8946 18.8289 19.0993 18.8122 19.2998 18.7839L19.5352 23.3318ZM23.8467 21.6853L25.0176 23.7595C24.6255 24.2018 24.2061 24.6181 23.7627 25.0066L22.3779 22.5525L20.3574 18.4949C20.7416 18.3354 21.098 18.1221 21.4199 17.865L23.8467 21.6853ZM14.5635 15.9861C14.7192 16.3792 14.9274 16.7445 15.1787 17.074L11.4453 19.5574L4.48047 23.6697C4.10019 23.2332 3.74648 22.7723 3.4209 22.2898L10.5967 18.0535L14.5635 15.9861ZM26.7764 18.0535L27.8965 18.7146C27.7158 19.2736 27.5016 19.8169 27.2568 20.3425L25.9277 19.5574L22.1934 17.075C22.445 16.7453 22.6527 16.3795 22.8086 15.9861L26.7764 18.0535ZM14.2812 13.6501C14.2535 13.8557 14.2393 14.0657 14.2393 14.2791C14.2393 14.4918 14.2536 14.7011 14.2812 14.906L9.83496 15.1462H1.01172C0.994727 14.8594 0.984375 14.5703 0.984375 14.2791C0.984376 13.9878 0.994724 13.6987 1.01172 13.4119H9.83496L14.2812 13.6501ZM28.5654 13.4119C28.5824 13.6987 28.5928 13.9878 28.5928 14.2791C28.5928 14.5703 28.5824 14.8594 28.5654 15.1462H27.5381L23.0908 14.906C23.1185 14.701 23.1348 14.4918 23.1348 14.2791C23.1348 14.0656 23.1186 13.8558 23.0908 13.6501L27.5381 13.4119H28.5654ZM11.4463 9.00073L15.1797 11.4822C14.9283 11.8115 14.7204 12.177 14.5645 12.5701L10.5977 10.5046L3.4209 6.26636C3.74649 5.78399 4.10118 5.32378 4.48145 4.88745L11.4463 9.00073ZM27.2568 8.21362C27.5016 8.73911 27.7148 9.28269 27.8955 9.84155L26.7754 10.5037L22.8076 12.5691C22.6514 12.1756 22.4433 11.8098 22.1914 11.4802L25.9268 8.99976L27.2568 8.21362ZM14.9961 6.00366L17.0156 10.0623C16.6315 10.2217 16.2741 10.4341 15.9521 10.6912L13.5264 6.87183L10.1914 0.96167C10.7376 0.764418 11.2998 0.602751 11.875 0.476318L14.9961 6.00366ZM23.7617 3.54956C24.2055 3.93827 24.6252 4.35502 25.0176 4.79761L23.8467 6.8728L21.4199 10.6912C21.0977 10.434 20.74 10.2216 20.3555 10.0623L22.377 6.00464L23.7617 3.54956ZM17.8389 0.505615C18.419 0.639458 18.9853 0.810398 19.5352 1.01636V5.22534L19.2998 9.77319C19.0993 9.74491 18.8946 9.72925 18.6865 9.72925C18.4781 9.72925 18.2731 9.74481 18.0723 9.77319L17.8389 5.22534V0.505615Z" fill="#3265FF"/>
</svg>